<?xml version="1.0" encoding="UTF-8"?>
<svg id="Layer_1" data-name="Layer 1" xmlns="http://www.w3.org/2000/svg" xmlns:xlink="http://www.w3.org/1999/xlink" viewBox="0 0 400 400">
  <defs>
    <style>
      .cls-1 {
        fill: none;
      }

      .cls-1, .cls-2, .cls-3, .cls-4, .cls-5, .cls-6, .cls-7, .cls-8, .cls-9, .cls-10, .cls-11, .cls-12, .cls-13, .cls-14, .cls-15, .cls-16, .cls-17, .cls-18, .cls-19, .cls-20, .cls-21, .cls-22, .cls-23 {
        stroke-width: 0px;
      }

      .cls-24, .cls-15 {
        fill: #6c1d5f;
      }

      .cls-25, .cls-6 {
        fill: #793b74;
      }

      .cls-26 {
        clip-path: url(#clippath-1);
      }

      .cls-27 {
        clip-path: url(#clippath-4);
      }

      .cls-28 {
        clip-path: url(#clippath-3);
      }

      .cls-29 {
        clip-path: url(#clippath-2);
      }

      .cls-30 {
        clip-path: url(#clippath-7);
      }

      .cls-31 {
        clip-path: url(#clippath-8);
      }

      .cls-32 {
        clip-path: url(#clippath-6);
      }

      .cls-33 {
        clip-path: url(#clippath-5);
      }

      .cls-34 {
        clip-path: url(#clippath-9);
      }

      .cls-35 {
        clip-path: url(#clippath-60);
      }

      .cls-36 {
        clip-path: url(#clippath-69);
      }

      .cls-37 {
        clip-path: url(#clippath-20);
      }

      .cls-38 {
        clip-path: url(#clippath-21);
      }

      .cls-39 {
        clip-path: url(#clippath-24);
      }

      .cls-40 {
        clip-path: url(#clippath-23);
      }

      .cls-41 {
        clip-path: url(#clippath-22);
      }

      .cls-42 {
        clip-path: url(#clippath-25);
      }

      .cls-43 {
        clip-path: url(#clippath-44);
      }

      .cls-44 {
        clip-path: url(#clippath-45);
      }

      .cls-45 {
        clip-path: url(#clippath-40);
      }

      .cls-46 {
        clip-path: url(#clippath-42);
      }

      .cls-47 {
        clip-path: url(#clippath-41);
      }

      .cls-48 {
        clip-path: url(#clippath-47);
      }

      .cls-49 {
        clip-path: url(#clippath-43);
      }

      .cls-50 {
        clip-path: url(#clippath-46);
      }

      .cls-51 {
        clip-path: url(#clippath-48);
      }

      .cls-52 {
        clip-path: url(#clippath-49);
      }

      .cls-53 {
        clip-path: url(#clippath-27);
      }

      .cls-54 {
        clip-path: url(#clippath-28);
      }

      .cls-55 {
        clip-path: url(#clippath-26);
      }

      .cls-56 {
        clip-path: url(#clippath-29);
      }

      .cls-57 {
        clip-path: url(#clippath-34);
      }

      .cls-58 {
        clip-path: url(#clippath-35);
      }

      .cls-59 {
        clip-path: url(#clippath-36);
      }

      .cls-60 {
        clip-path: url(#clippath-37);
      }

      .cls-61 {
        clip-path: url(#clippath-39);
      }

      .cls-62 {
        clip-path: url(#clippath-33);
      }

      .cls-63 {
        clip-path: url(#clippath-32);
      }

      .cls-64 {
        clip-path: url(#clippath-30);
      }

      .cls-65 {
        clip-path: url(#clippath-38);
      }

      .cls-66 {
        clip-path: url(#clippath-31);
      }

      .cls-67 {
        clip-path: url(#clippath-53);
      }

      .cls-68 {
        clip-path: url(#clippath-54);
      }

      .cls-69 {
        clip-path: url(#clippath-50);
      }

      .cls-70 {
        clip-path: url(#clippath-51);
      }

      .cls-71 {
        clip-path: url(#clippath-52);
      }

      .cls-72 {
        clip-path: url(#clippath-55);
      }

      .cls-73 {
        clip-path: url(#clippath-56);
      }

      .cls-74 {
        clip-path: url(#clippath-57);
      }

      .cls-75 {
        clip-path: url(#clippath-58);
      }

      .cls-76 {
        clip-path: url(#clippath-61);
      }

      .cls-77 {
        clip-path: url(#clippath-64);
      }

      .cls-78 {
        clip-path: url(#clippath-62);
      }

      .cls-79 {
        clip-path: url(#clippath-68);
      }

      .cls-80 {
        clip-path: url(#clippath-67);
      }

      .cls-81 {
        clip-path: url(#clippath-59);
      }

      .cls-82 {
        clip-path: url(#clippath-65);
      }

      .cls-83 {
        clip-path: url(#clippath-63);
      }

      .cls-84 {
        clip-path: url(#clippath-66);
      }

      .cls-85 {
        clip-path: url(#clippath-70);
      }

      .cls-86 {
        clip-path: url(#clippath-71);
      }

      .cls-87 {
        clip-path: url(#clippath-14);
      }

      .cls-88 {
        clip-path: url(#clippath-13);
      }

      .cls-89 {
        clip-path: url(#clippath-12);
      }

      .cls-90 {
        clip-path: url(#clippath-10);
      }

      .cls-91 {
        clip-path: url(#clippath-15);
      }

      .cls-92 {
        clip-path: url(#clippath-17);
      }

      .cls-93 {
        clip-path: url(#clippath-16);
      }

      .cls-94 {
        clip-path: url(#clippath-19);
      }

      .cls-95 {
        clip-path: url(#clippath-11);
      }

      .cls-96 {
        clip-path: url(#clippath-18);
      }

      .cls-97 {
        isolation: isolate;
      }

      .cls-2 {
        fill: #f7f8fc;
      }

      .cls-3 {
        fill: #4d334f;
      }

      .cls-4 {
        fill: #4a314d;
      }

      .cls-5 {
        fill: #79507d;
      }

      .cls-7 {
        fill: #503552;
      }

      .cls-8 {
        fill: #523755;
      }

      .cls-9 {
        fill: #48304a;
      }

      .cls-10 {
        fill: #5a3c5d;
      }

      .cls-11 {
        fill: #452e47;
      }

      .cls-12 {
        fill: #432c45;
      }

      .cls-13 {
        fill: #059a8e;
      }

      .cls-14 {
        fill: #d9d6ea;
      }

      .cls-16 {
        fill: #04655e;
      }

      .cls-17 {
        fill: #04655d;
      }

      .cls-18 {
        fill: #046961;
      }

      .cls-19 {
        fill: #03625b;
      }

      .cls-20 {
        fill: #03625a;
      }

      .cls-21 {
        fill: #035851;
      }

      .cls-22 {
        fill: #035f57;
      }

      .cls-23 {
        fill: #035b54;
      }
    </style>
    <clipPath id="clippath-1">
      <path class="cls-15" d="m376.95,220.67l-.8,38.91c-.22,10.82-5.52,21.54-15.89,29.73l.8-38.91c10.37-8.18,15.67-18.91,15.89-29.73Z"/>
    </clipPath>
    <clipPath id="clippath-2">
      <path class="cls-15" d="m23.05,255.68l.8-38.91c-.23,11.32,5.09,22.73,15.96,31.44l-.8,38.91c-10.87-8.71-16.19-20.12-15.96-31.44Z"/>
    </clipPath>
    <clipPath id="clippath-3">
      <path class="cls-15" d="m239.01,346.68l-.8,38.91c-21.23,16.75-55.67,16.51-76.94-.52l.8-38.91c21.27,17.04,55.71,17.27,76.94.52Z"/>
    </clipPath>
    <clipPath id="clippath-4">
      <path class="cls-6" d="m376.95,182.04l-.8,38.91c-.22,10.82-5.52,21.54-15.89,29.73l.8-38.91c10.37-8.18,15.67-18.91,15.89-29.73Z"/>
    </clipPath>
    <clipPath id="clippath-5">
      <path class="cls-6" d="m23.05,217.05l.8-38.91c-.23,11.32,5.09,22.73,15.96,31.44l-.8,38.91c-10.87-8.71-16.19-20.12-15.96-31.44Z"/>
    </clipPath>
    <clipPath id="clippath-6">
      <path class="cls-6" d="m239.01,308.04l-.8,38.91c-21.23,16.75-55.67,16.51-76.94-.52l.8-38.91c21.27,17.04,55.71,17.27,76.94.52Z"/>
    </clipPath>
    <clipPath id="clippath-7">
      <path class="cls-1" d="m216.64,204.01l-.03-2.51s0,.03,0,.05c.02.35.2.68.51,1.01l.03,2.51c-.3-.33-.48-.66-.51-1.01,0-.02,0-.04,0-.05Z"/>
    </clipPath>
    <clipPath id="clippath-8">
      <path class="cls-1" d="m226.81,206.12l.03,2.51s0,.08,0,.12c-.03.29-.21.56-.56.83l-.03-2.51c.34-.27.53-.54.56-.83,0-.04,0-.08,0-.12Z"/>
    </clipPath>
    <clipPath id="clippath-9">
      <path class="cls-1" d="m223.46,208.88l.03,2.51c-.29-.02-.53-.13-.74-.33l-.03-2.51c.21.2.45.31.74.33Z"/>
    </clipPath>
    <clipPath id="clippath-10">
      <path class="cls-1" d="m224.25,208.63l.03,2.51c-.24.18-.5.27-.78.25l-.03-2.51c.29.02.55-.06.78-.25Z"/>
    </clipPath>
    <clipPath id="clippath-11">
      <path class="cls-1" d="m263.18,167.64l-.03-2.51s0,.03,0,.05c.02.35.2.68.51,1l.03,2.51c-.31-.32-.49-.66-.51-1,0-.02,0-.04,0-.05Z"/>
    </clipPath>
    <clipPath id="clippath-12">
      <path class="cls-1" d="m273.35,169.75l.03,2.51s0,.09,0,.13c-.03.29-.21.56-.55.82l-.03-2.51c.34-.26.52-.54.55-.82,0-.04,0-.09,0-.13Z"/>
    </clipPath>
    <clipPath id="clippath-13">
      <path class="cls-1" d="m270.01,172.51l.03,2.51c-.29-.02-.53-.13-.74-.33l-.03-2.51c.21.2.45.31.74.33Z"/>
    </clipPath>
    <clipPath id="clippath-14">
      <path class="cls-1" d="m270.79,172.27l.03,2.51c-.24.18-.5.27-.78.25l-.03-2.51c.29.02.55-.06.78-.25Z"/>
    </clipPath>
    <clipPath id="clippath-15">
      <polygon class="cls-1" points="277.57 125.34 277.54 122.83 277.54 122.84 277.57 125.35 277.57 125.34"/>
    </clipPath>
    <clipPath id="clippath-16">
      <path class="cls-1" d="m277.57,125.39l-.03-2.51c0,.23.09.45.27.66l.03,2.51c-.17-.21-.26-.43-.27-.66Z"/>
    </clipPath>
    <clipPath id="clippath-17">
      <path class="cls-1" d="m293.11,124.06l.03,2.51c0,.26-.13.5-.39.7l-.03-2.51c.26-.2.39-.44.39-.7Z"/>
    </clipPath>
    <clipPath id="clippath-18">
      <path class="cls-1" d="m293.11,124.05l.03,2.51s0,0,0,.01l-.03-2.51s0,0,0-.01Z"/>
    </clipPath>
    <clipPath id="clippath-19">
      <polygon class="cls-1" points="268.65 132.31 268.61 129.8 268.61 129.81 268.65 132.32 268.65 132.31"/>
    </clipPath>
    <clipPath id="clippath-20">
      <path class="cls-1" d="m268.65,132.36l-.03-2.51c0,.23.09.45.27.66l.03,2.51c-.17-.21-.26-.43-.27-.66Z"/>
    </clipPath>
    <clipPath id="clippath-21">
      <path class="cls-1" d="m302.04,132.56l.03,2.51s0,0,0,.01l-.03-2.51s0,0,0-.01Z"/>
    </clipPath>
    <clipPath id="clippath-22">
      <path class="cls-1" d="m302.04,132.57l.03,2.51c0,.27-.13.5-.4.71l-.03-2.51c.26-.2.4-.44.4-.71Z"/>
    </clipPath>
    <clipPath id="clippath-23">
      <path class="cls-1" d="m267.72,141.03l-.03-2.51c0,.25.14.47.39.67l.03,2.51c-.25-.19-.38-.42-.39-.67Z"/>
    </clipPath>
    <clipPath id="clippath-24">
      <path class="cls-1" d="m271.18,141.2l.03,2.51c-.34,0-.64-.1-.9-.3l-.03-2.51c.26.2.56.3.9.3Z"/>
    </clipPath>
    <clipPath id="clippath-25">
      <path class="cls-1" d="m272.08,140.89l.03,2.51c-.27.21-.57.3-.9.31l-.03-2.51c.34,0,.64-.1.9-.31Z"/>
    </clipPath>
    <clipPath id="clippath-26">
      <path class="cls-1" d="m301.2,141.19l.03,2.51c0,.25-.12.46-.36.65l-.03-2.51c.24-.18.36-.4.36-.65Z"/>
    </clipPath>
    <clipPath id="clippath-27">
      <path class="cls-1" d="m298.56,143.62l.03,2.51c-.24.18-.52.28-.84.29l-.03-2.51c.32,0,.6-.11.84-.29Z"/>
    </clipPath>
    <clipPath id="clippath-28">
      <path class="cls-1" d="m297.72,143.91l.03,2.51c-.33.01-.6-.09-.81-.29l-.03-2.51c.21.2.48.3.81.29Z"/>
    </clipPath>
    <clipPath id="clippath-29">
      <path class="cls-1" d="m277,147.71l.03,2.51c-.26-.2-.39-.44-.39-.7l-.03-2.51c0,.26.13.5.39.7Z"/>
    </clipPath>
    <clipPath id="clippath-30">
      <path class="cls-1" d="m292.28,148.16l.03,2.51c0,.25-.12.46-.36.65l-.03-2.51c.24-.18.36-.4.36-.65Z"/>
    </clipPath>
    <clipPath id="clippath-31">
      <path class="cls-1" d="m280.1,149.72l.03,2.51c-.34,0-.64-.1-.9-.3l-.03-2.51c.26.2.57.3.9.3Z"/>
    </clipPath>
    <clipPath id="clippath-32">
      <path class="cls-1" d="m281,149.4l.03,2.51c-.26.2-.56.31-.9.31l-.03-2.51c.34,0,.64-.11.9-.31Z"/>
    </clipPath>
    <clipPath id="clippath-33">
      <path class="cls-1" d="m289.64,150.59l.03,2.51c-.24.18-.52.28-.84.29l-.03-2.51c.32,0,.6-.11.84-.29Z"/>
    </clipPath>
    <clipPath id="clippath-34">
      <path class="cls-1" d="m288.8,150.88l.03,2.51c-.33.01-.6-.09-.81-.29l-.03-2.51c.21.2.48.3.81.29Z"/>
    </clipPath>
    <clipPath id="clippath-35">
      <path class="cls-1" d="m125.93,157.67l.03,2.51c-5.86.02-10.6-3.66-10.59-8.21l-.03-2.51c0,4.56,4.73,8.23,10.59,8.21Z"/>
    </clipPath>
    <clipPath id="clippath-36">
      <path class="cls-1" d="m189.58,149.14l.03,2.51c0,2.28-1.19,4.35-3.12,5.86s-4.58,2.43-7.51,2.44l-.03-2.51c2.93-.01,5.59-.94,7.51-2.44,1.93-1.5,3.12-3.57,3.12-5.86Z"/>
    </clipPath>
    <clipPath id="clippath-37">
      <path class="cls-1" d="m231.02,161.73l-.03-2.51c0,.23.09.46.27.68l.03,2.51c-.18-.22-.27-.45-.27-.68Z"/>
    </clipPath>
    <clipPath id="clippath-38">
      <path class="cls-1" d="m246.57,160.41l.03,2.51s0,0,0,.01l-.03-2.51s0,0,0-.01Z"/>
    </clipPath>
    <clipPath id="clippath-39">
      <path class="cls-1" d="m246.57,160.43l.03,2.51c0,.26-.13.5-.4.71l-.03-2.51c.26-.2.39-.44.4-.71Z"/>
    </clipPath>
    <clipPath id="clippath-40">
      <path class="cls-1" d="m222.09,168.71l-.03-2.51c0,.23.09.46.27.68l.03,2.51c-.18-.22-.27-.45-.27-.68Z"/>
    </clipPath>
    <clipPath id="clippath-41">
      <path class="cls-1" d="m255.49,168.94l.03,2.51c0,.27-.13.5-.4.71l-.03-2.51c.26-.2.4-.44.4-.71Z"/>
    </clipPath>
    <clipPath id="clippath-42">
      <path class="cls-1" d="m221.18,177.4l-.03-2.51c0,.25.14.47.39.67l.03,2.51c-.25-.19-.38-.42-.39-.67Z"/>
    </clipPath>
    <clipPath id="clippath-43">
      <path class="cls-1" d="m225.53,177.26l.03,2.51c-.26.2-.57.3-.9.31-.34,0-.64-.1-.9-.3l-.03-2.51c.26.2.56.3.9.3.33,0,.64-.1.9-.31Z"/>
    </clipPath>
    <clipPath id="clippath-44">
      <path class="cls-1" d="m254.65,177.55l.03,2.51s0,.01,0,.02l-.03-2.51s0-.01,0-.02Z"/>
    </clipPath>
    <clipPath id="clippath-45">
      <path class="cls-1" d="m254.65,177.56l.03,2.51c0,.24-.12.46-.35.64l-.03-2.51c.24-.18.36-.4.35-.64Z"/>
    </clipPath>
    <clipPath id="clippath-46">
      <path class="cls-1" d="m252.02,179.99l.03,2.51c-.24.18-.52.28-.84.29l-.03-2.51c.32,0,.6-.11.84-.29Z"/>
    </clipPath>
    <clipPath id="clippath-47">
      <path class="cls-1" d="m251.18,180.28l.03,2.51c-.33.01-.6-.08-.81-.29l-.03-2.51c.2.21.48.3.81.29Z"/>
    </clipPath>
    <clipPath id="clippath-48">
      <path class="cls-1" d="m230.1,185.9l-.03-2.51c0,.26.14.49.39.69l.03,2.51c-.26-.2-.39-.43-.39-.69Z"/>
    </clipPath>
    <clipPath id="clippath-49">
      <path class="cls-1" d="m245.72,184.52l.03,2.51s0,.01,0,.02l-.03-2.51s0-.01,0-.02Z"/>
    </clipPath>
    <clipPath id="clippath-50">
      <path class="cls-1" d="m245.73,184.53l.03,2.51c0,.24-.12.46-.35.64l-.03-2.51c.24-.18.36-.4.35-.64Z"/>
    </clipPath>
    <clipPath id="clippath-51">
      <path class="cls-1" d="m234.46,185.77l.03,2.51c-.26.2-.56.31-.9.31-.34,0-.64-.1-.9-.3l-.03-2.51c.26.2.56.3.9.3.34,0,.64-.11.9-.31Z"/>
    </clipPath>
    <clipPath id="clippath-52">
      <path class="cls-1" d="m243.09,186.96l.03,2.51c-.24.18-.52.28-.85.3l-.03-2.51c.33-.01.61-.11.85-.3Z"/>
    </clipPath>
    <clipPath id="clippath-53">
      <path class="cls-1" d="m242.24,187.25l.03,2.51c-.32,0-.6-.09-.8-.29l-.03-2.51c.2.21.48.3.8.29Z"/>
    </clipPath>
    <clipPath id="clippath-54">
      <path class="cls-1" d="m184.47,198.12l-.03-2.51c0,.23.1.45.27.66l.03,2.51c-.17-.21-.27-.43-.27-.66Z"/>
    </clipPath>
    <clipPath id="clippath-55">
      <path class="cls-1" d="m200.02,196.79l.03,2.51c0,.26-.13.5-.4.71l-.03-2.51c.26-.2.39-.44.4-.71Z"/>
    </clipPath>
    <clipPath id="clippath-56">
      <path class="cls-1" d="m200.02,196.78l.03,2.51s0,0,0,.01l-.03-2.51s0,0,0-.01Z"/>
    </clipPath>
    <clipPath id="clippath-57">
      <path class="cls-1" d="m175.55,205.09l-.03-2.51c0,.23.1.45.27.66l.03,2.51c-.17-.21-.27-.43-.27-.66Z"/>
    </clipPath>
    <clipPath id="clippath-58">
      <path class="cls-1" d="m208.95,205.3l.03,2.51c0,.27-.13.5-.4.71l-.03-2.51c.26-.2.4-.44.4-.71Z"/>
    </clipPath>
    <clipPath id="clippath-59">
      <path class="cls-1" d="m174.63,213.75l-.03-2.51c0,.25.13.49.39.68l.03,2.51c-.26-.2-.38-.43-.39-.68Z"/>
    </clipPath>
    <clipPath id="clippath-60">
      <path class="cls-1" d="m178.98,213.62l.03,2.51c-.26.2-.57.3-.9.31l-.03-2.51c.34,0,.64-.11.9-.31Z"/>
    </clipPath>
    <clipPath id="clippath-61">
      <path class="cls-1" d="m178.08,213.93l.03,2.51c-.34,0-.64-.1-.9-.3l-.03-2.51c.26.2.57.3.9.3Z"/>
    </clipPath>
    <clipPath id="clippath-62">
      <path class="cls-1" d="m208.1,213.91l.03,2.51s0,.01,0,.02l-.03-2.51s0-.01,0-.02Z"/>
    </clipPath>
    <clipPath id="clippath-63">
      <path class="cls-1" d="m208.1,213.93l.03,2.51c0,.25-.12.46-.35.64l-.03-2.51c.24-.18.35-.39.35-.64Z"/>
    </clipPath>
    <clipPath id="clippath-64">
      <path class="cls-1" d="m205.47,216.35l.03,2.51c-.24.18-.52.28-.85.3l-.03-2.51c.33-.01.61-.11.85-.3Z"/>
    </clipPath>
    <clipPath id="clippath-65">
      <path class="cls-1" d="m204.62,216.65l.03,2.51c-.32,0-.6-.09-.81-.29l-.03-2.51c.21.2.48.3.81.29Z"/>
    </clipPath>
    <clipPath id="clippath-66">
      <path class="cls-1" d="m183.56,222.26l-.03-2.51c0,.26.14.49.39.69l.03,2.51c-.26-.2-.39-.43-.39-.69Z"/>
    </clipPath>
    <clipPath id="clippath-67">
      <path class="cls-1" d="m199.18,220.9l.03,2.51c0,.25-.12.46-.35.64l-.03-2.51c.24-.18.35-.39.35-.64Z"/>
    </clipPath>
    <clipPath id="clippath-68">
      <path class="cls-1" d="m199.18,220.88l.03,2.51s0,.01,0,.02l-.03-2.51s0-.01,0-.02Z"/>
    </clipPath>
    <clipPath id="clippath-69">
      <path class="cls-1" d="m187.91,222.14l.03,2.51c-.26.2-.56.31-.9.31-.34,0-.64-.1-.9-.3l-.03-2.51c.26.2.56.3.9.3.34,0,.64-.11.9-.31Z"/>
    </clipPath>
    <clipPath id="clippath-70">
      <path class="cls-1" d="m196.55,223.32l.03,2.51c-.24.18-.52.28-.85.3l-.03-2.51c.33-.01.61-.11.85-.3Z"/>
    </clipPath>
    <clipPath id="clippath-71">
      <path class="cls-1" d="m195.7,223.62l.03,2.51c-.32,0-.6-.09-.81-.29l-.03-2.51c.21.2.48.3.81.29Z"/>
    </clipPath>
  </defs>
  <g>
    <g>
      <path class="cls-24" d="m376.95,220.67l-.8,38.91c-.22,10.82-5.52,21.54-15.89,29.73l.8-38.91c10.37-8.18,15.67-18.91,15.89-29.73Z"/>
      <g class="cls-26">
        <g class="cls-97">
          <path class="cls-15" d="m376.95,220.67l-.8,38.91c-.02.83-.06,1.66-.14,2.49l.8-38.91c.08-.83.12-1.66.14-2.49"/>
          <path class="cls-15" d="m376.81,223.16l-.8,38.91c-.38,4.06-1.47,8.09-3.29,11.94l.8-38.91c1.82-3.85,2.91-7.88,3.29-11.94"/>
          <path class="cls-15" d="m373.52,235.1l-.8,38.91c-2.64,5.59-6.79,10.82-12.46,15.3l.8-38.91c5.67-4.47,9.82-9.7,12.46-15.3"/>
        </g>
      </g>
    </g>
    <g>
      <path class="cls-24" d="m23.05,255.68l.8-38.91c-.23,11.32,5.09,22.73,15.96,31.44l-.8,38.91c-10.87-8.71-16.19-20.12-15.96-31.44Z"/>
      <g class="cls-29">
        <g class="cls-97">
          <path class="cls-15" d="m39.81,248.21l-.8,38.91c-10.87-8.71-16.19-20.12-15.96-31.44l.8-38.91c-.23,11.32,5.09,22.73,15.96,31.44"/>
        </g>
      </g>
    </g>
    <polygon class="cls-15" points="361.06 250.39 360.26 289.31 238.21 385.59 239.01 346.68 361.06 250.39"/>
    <polygon class="cls-15" points="162.07 346.15 161.27 385.07 39.01 287.12 39.81 248.21 162.07 346.15"/>
    <path class="cls-15" d="m360.99,189.23c21.27,17.04,21.3,44.42.07,61.17l-122.05,96.28c-21.23,16.75-55.67,16.51-76.94-.52l-122.26-97.94c-21.27-17.04-21.3-44.42-.07-61.17l122.05-96.28c21.23-16.75,55.67-16.51,76.94.52l122.26,97.94Z"/>
    <g>
      <path class="cls-24" d="m239.01,346.68l-.8,38.91c-21.23,16.75-55.67,16.51-76.94-.52l.8-38.91c21.27,17.04,55.71,17.27,76.94.52Z"/>
      <g class="cls-28">
        <g class="cls-97">
          <path class="cls-15" d="m239.01,346.68l-.8,38.91c-.47.37-.94.73-1.42,1.08l.8-38.91c.48-.35.95-.71,1.42-1.08"/>
          <path class="cls-15" d="m237.59,347.76l-.8,38.91c-3.86,2.84-8.12,5.14-12.63,6.91l.8-38.91c4.51-1.77,8.77-4.07,12.63-6.91"/>
          <path class="cls-15" d="m224.96,354.67l-.8,38.91c-3.28,1.29-6.7,2.29-10.19,3.02l.8-38.91c3.49-.72,6.91-1.73,10.19-3.02"/>
          <path class="cls-15" d="m214.77,357.69l-.8,38.91c-3.36.7-6.8,1.14-10.25,1.31l.8-38.91c3.45-.18,6.89-.61,10.25-1.31"/>
          <path class="cls-15" d="m204.52,359l-.8,38.91c-3.88.2-7.78.07-11.63-.39l.8-38.91c3.85.46,7.75.59,11.63.39"/>
          <path class="cls-15" d="m192.89,358.6l-.8,38.91c-11.27-1.34-22.14-5.5-30.82-12.45l.8-38.91c8.68,6.95,19.55,11.1,30.82,12.45"/>
        </g>
      </g>
    </g>
  </g>
  <g>
    <g>
      <path class="cls-25" d="m376.95,182.04l-.8,38.91c-.22,10.82-5.52,21.54-15.89,29.73l.8-38.91c10.37-8.18,15.67-18.91,15.89-29.73Z"/>
      <g class="cls-27">
        <g class="cls-97">
          <path class="cls-6" d="m376.95,182.04l-.8,38.91c-.02.83-.06,1.66-.14,2.49l.8-38.91c.08-.83.12-1.66.14-2.49"/>
          <path class="cls-6" d="m376.81,184.53l-.8,38.91c-.38,4.06-1.47,8.09-3.29,11.94l.8-38.91c1.82-3.85,2.91-7.88,3.29-11.94"/>
          <path class="cls-6" d="m373.51,196.47l-.8,38.91c-2.64,5.59-6.79,10.82-12.46,15.3l.8-38.91c5.67-4.47,9.82-9.7,12.46-15.3"/>
        </g>
      </g>
    </g>
    <g>
      <path class="cls-25" d="m23.05,217.05l.8-38.91c-.23,11.32,5.09,22.73,15.96,31.44l-.8,38.91c-10.87-8.71-16.19-20.12-15.96-31.44Z"/>
      <g class="cls-33">
        <g class="cls-97">
          <path class="cls-6" d="m39.81,209.57l-.8,38.91c-10.87-8.71-16.19-20.12-15.96-31.44l.8-38.91c-.23,11.32,5.09,22.73,15.96,31.44"/>
        </g>
      </g>
    </g>
    <polygon class="cls-6" points="361.05 211.76 360.26 250.68 238.22 346.96 239.01 308.04 361.05 211.76"/>
    <polygon class="cls-6" points="162.07 307.52 161.28 346.43 39.02 248.49 39.81 209.57 162.07 307.52"/>
    <path class="cls-6" d="m360.98,150.6c21.27,17.04,21.3,44.42.07,61.17l-122.04,96.28c-21.23,16.75-55.67,16.51-76.94-.52l-122.26-97.94c-21.27-17.04-21.3-44.42-.07-61.17l122.04-96.28c21.23-16.75,55.67-16.51,76.94.52l122.26,97.94Z"/>
    <g>
      <path class="cls-25" d="m239.01,308.04l-.8,38.91c-21.23,16.75-55.67,16.51-76.94-.52l.8-38.91c21.27,17.04,55.71,17.27,76.94.52Z"/>
      <g class="cls-32">
        <g class="cls-97">
          <path class="cls-6" d="m239.01,308.04l-.8,38.91c-.47.37-.94.73-1.42,1.08l.8-38.91c.48-.35.95-.71,1.42-1.08"/>
          <path class="cls-6" d="m237.59,309.12l-.8,38.91c-3.86,2.84-8.12,5.14-12.63,6.91l.8-38.91c4.51-1.77,8.77-4.07,12.63-6.91"/>
          <path class="cls-6" d="m224.96,316.03l-.8,38.91c-3.28,1.29-6.7,2.29-10.19,3.02l.8-38.91c3.49-.72,6.91-1.73,10.19-3.02"/>
          <path class="cls-6" d="m214.77,319.05l-.8,38.91c-3.36.7-6.8,1.14-10.25,1.31l.8-38.91c3.45-.18,6.89-.61,10.25-1.31"/>
          <path class="cls-6" d="m204.52,320.36l-.8,38.91c-3.88.2-7.78.07-11.63-.39l.8-38.91c3.85.46,7.75.59,11.63.39"/>
          <path class="cls-6" d="m192.89,319.97l-.8,38.91c-11.27-1.34-22.14-5.5-30.82-12.45l.8-38.91c8.68,6.95,19.55,11.1,30.82,12.45"/>
        </g>
      </g>
    </g>
  </g>
  <g class="cls-97">
    <path class="cls-2" d="m360.99,112.88c21.27,17.04,21.3,44.42.07,61.17l-122.05,96.28c-21.23,16.75-55.67,16.51-76.94-.52l-122.26-97.94c-21.27-17.04-21.3-44.42-.07-61.17L161.79,14.41c21.23-16.75,55.67-16.51,76.94.52l122.26,97.94Z"/>
    <path class="cls-14" d="m376.95,144.32c-.02.76-.06,1.53-.13,2.29-.05.58-.11,1.16-.19,1.74,0,.04-.01.07-.02.11-.08.57-.18,1.14-.29,1.7-.03.18-.07.36-.11.55-.09.44-.19.89-.3,1.33-.04.18-.09.36-.13.53-.16.6-.33,1.19-.52,1.78,0,0,0,.02,0,.03-.19.58-.4,1.16-.62,1.74-.07.17-.14.35-.21.52-.17.43-.35.86-.54,1.29-.08.17-.15.35-.23.52-.14.3-.29.6-.44.89-.19.39-.39.78-.6,1.17-.15.28-.31.56-.47.85-.21.38-.43.75-.66,1.12-.17.28-.35.56-.53.84-.24.37-.48.73-.73,1.09-.19.28-.39.55-.59.83-.26.36-.54.72-.82,1.07-.21.27-.42.53-.64.8-.29.36-.6.71-.91,1.06-.22.25-.44.51-.68.76-.33.36-.68.72-1.03,1.07-.23.23-.45.46-.68.69-.4.39-.81.77-1.23,1.14-.21.19-.4.38-.61.56-.64.56-1.29,1.11-1.97,1.64l-122.05,96.28c-.54.43-1.1.84-1.66,1.25-.86.62-1.73,1.22-2.63,1.79-.15.1-.31.19-.46.28-.77.48-1.55.94-2.34,1.38-.26.15-.52.29-.79.43-.88.47-1.76.92-2.67,1.34-.07.03-.14.07-.22.11-.97.45-1.96.87-2.96,1.27-.35.14-.7.27-1.05.41-.43.16-.86.32-1.29.47-.39.14-.78.27-1.18.4-.43.14-.87.28-1.31.42-.4.12-.8.24-1.2.35-.44.13-.88.25-1.33.36-.4.11-.81.21-1.21.3-.45.11-.89.21-1.34.31-.42.09-.83.18-1.25.26-.42.08-.84.16-1.26.24-.43.08-.86.15-1.29.21-.42.07-.85.13-1.27.19-.43.06-.86.11-1.3.17-.43.05-.85.1-1.28.14-.43.04-.87.08-1.3.12-.43.03-.86.06-1.29.09-.41.02-.82.04-1.23.06-.54.02-1.08.04-1.63.05-.39,0-.77.01-1.16.01-.55,0-1.11,0-1.66-.02-.37,0-.75-.01-1.12-.03-.59-.02-1.17-.06-1.76-.1-.34-.02-.68-.04-1.01-.06-.7-.06-1.4-.13-2.09-.2-.23-.02-.45-.04-.68-.07-.15-.02-.29-.04-.44-.06-.65-.08-1.29-.17-1.94-.27-.27-.04-.53-.09-.8-.13-.53-.09-1.06-.18-1.59-.29-.28-.06-.57-.11-.85-.17-.53-.11-1.06-.23-1.59-.35-.25-.06-.51-.12-.76-.18-.7-.17-1.39-.35-2.09-.55-.07-.02-.15-.04-.22-.06-.76-.22-1.52-.45-2.28-.7-.23-.07-.45-.15-.68-.23-.53-.18-1.06-.36-1.58-.56-.27-.1-.53-.2-.8-.3-.49-.19-.98-.38-1.46-.59-.26-.11-.52-.21-.77-.32-.54-.23-1.07-.47-1.61-.72-.19-.09-.37-.17-.56-.26-.71-.34-1.41-.69-2.1-1.06-.16-.08-.31-.17-.46-.25-.54-.29-1.07-.59-1.6-.9-.23-.14-.46-.28-.69-.42-.45-.27-.9-.55-1.34-.83-.24-.15-.48-.31-.71-.46-.45-.3-.9-.61-1.34-.92-.2-.14-.41-.28-.61-.43-.63-.46-1.26-.93-1.87-1.42l-122.26-97.94c-10.87-8.71-16.19-20.12-15.96-31.44l-.8,38.91c-.23,11.32,5.09,22.73,15.96,31.44l122.26,97.94c.61.49,1.24.96,1.87,1.42.2.15.4.29.61.43.44.31.89.62,1.34.92.24.16.47.31.71.46.44.28.89.56,1.34.83.23.14.46.28.69.41.53.31,1.06.61,1.6.9.16.08.31.17.47.26.69.37,1.39.72,2.1,1.06.18.09.37.17.56.26.53.25,1.07.49,1.61.72.26.11.51.22.77.32.49.2.97.4,1.46.59.27.1.53.2.8.3.52.19,1.05.38,1.58.56.23.08.45.16.68.23.75.25,1.51.48,2.28.7.07.02.15.04.22.06.69.19,1.39.38,2.09.55.25.06.51.12.76.18.53.12,1.06.24,1.59.35.28.06.57.12.85.17.53.1,1.06.2,1.59.29.27.05.53.09.8.13.64.1,1.29.19,1.94.27.15.02.29.04.44.06.03,0,.05,0,.08.01.2.02.4.04.6.06.7.08,1.39.15,2.09.2.34.03.68.04,1.01.06.59.04,1.17.07,1.76.1.37.01.75.02,1.12.03.55.01,1.11.02,1.66.02.39,0,.77,0,1.16-.01.54,0,1.08-.03,1.63-.05.2,0,.4,0,.6-.02.21-.01.42-.03.63-.04.43-.03.86-.06,1.29-.09.43-.03.87-.07,1.3-.12.43-.04.85-.09,1.28-.14.43-.05.86-.11,1.3-.17.42-.06.85-.12,1.27-.19.43-.07.86-.14,1.29-.22.42-.07.84-.15,1.26-.24.21-.04.43-.08.64-.12.21-.04.41-.1.61-.14.45-.1.9-.2,1.34-.31.41-.1.81-.2,1.21-.3.44-.12.89-.24,1.33-.36.4-.11.8-.23,1.2-.35.44-.13.87-.27,1.31-.42.39-.13.79-.26,1.18-.4.43-.15.86-.31,1.29-.47.24-.09.48-.17.72-.27.11-.04.22-.1.33-.14,1-.4,1.99-.82,2.97-1.27.07-.03.14-.07.22-.11.9-.42,1.79-.88,2.67-1.35.26-.14.52-.28.78-.43.79-.44,1.58-.9,2.35-1.38.15-.09.31-.18.46-.28.89-.57,1.77-1.17,2.63-1.79.08-.06.16-.11.24-.16.48-.35.95-.71,1.42-1.08l122.05-96.28c.68-.54,1.34-1.09,1.97-1.64.21-.18.41-.37.61-.56.42-.38.83-.76,1.23-1.14.23-.23.46-.46.68-.69.35-.35.7-.71,1.03-1.07.23-.25.45-.51.68-.76.31-.35.61-.7.91-1.06.22-.27.43-.53.64-.8.28-.35.55-.71.81-1.07.2-.27.4-.55.59-.83.25-.36.5-.73.73-1.09.18-.28.36-.56.53-.84.23-.37.45-.75.66-1.12.16-.28.32-.56.47-.85.21-.39.4-.78.6-1.17.1-.2.21-.4.3-.6.05-.1.09-.2.13-.3.08-.17.16-.35.23-.52.19-.43.37-.86.54-1.29.07-.17.14-.35.21-.52.22-.58.43-1.16.62-1.74,0,0,0-.02,0-.03.19-.59.36-1.19.52-1.79.05-.18.09-.35.13-.53.11-.44.21-.89.3-1.33.04-.18.08-.36.11-.54.11-.57.21-1.14.29-1.71,0-.03.01-.07.02-.1.07-.51.13-1.03.18-1.54,0-.07,0-.14.01-.2.07-.76.11-1.52.13-2.29l.8-38.91Z"/>
  </g>
  <g>
    <g class="cls-97">
      <g class="cls-97">
        <g class="cls-30">
          <g class="cls-97">
            <path class="cls-11" d="m217.11,202.56l.03,2.51c-.3-.33-.48-.66-.51-1.01,0-.02,0-.04,0-.05l-.03-2.51s0,.03,0,.05c.02.35.2.68.51,1.01"/>
          </g>
        </g>
      </g>
      <g class="cls-97">
        <g class="cls-31">
          <g class="cls-97">
            <path class="cls-3" d="m226.81,206.12l.03,2.51s0,0,0,.01l-.03-2.51s0,0,0-.01"/>
            <path class="cls-7" d="m226.81,206.13l.03,2.51s0,.07,0,.11c0,.04-.01.08-.02.12l-.03-2.51s.02-.08.02-.12c0-.04,0-.07,0-.11"/>
            <path class="cls-8" d="m226.78,206.36l.03,2.51c-.06.24-.24.48-.53.71l-.03-2.51c.29-.23.47-.46.53-.71"/>
          </g>
        </g>
      </g>
      <polygon class="cls-12" points="222.72 208.55 222.75 211.06 217.15 205.07 217.11 202.56 222.72 208.55"/>
      <polygon class="cls-10" points="226.25 207.07 226.28 209.58 224.28 211.15 224.25 208.63 226.25 207.07"/>
      <g class="cls-97">
        <g class="cls-34">
          <g class="cls-97">
            <path class="cls-9" d="m223.46,208.88l.03,2.51s-.07,0-.1-.01l-.03-2.51s.07,0,.1.01"/>
            <path class="cls-11" d="m223.36,208.87l.03,2.51c-.25-.04-.46-.14-.64-.32l-.03-2.51c.18.18.39.28.64.32"/>
          </g>
        </g>
      </g>
      <path class="cls-5" d="m220.74,197.78c.18-.14.42-.22.71-.22.29,0,.53.08.74.24.13.1.26.26.39.48l3.99,7.01c.18.35.26.66.23.95-.03.29-.21.56-.56.83l-2,1.56c-.24.18-.5.27-.78.25-.29-.02-.53-.13-.74-.33l-5.61-6c-.3-.33-.48-.66-.51-1.01-.02-.35.15-.66.52-.95l3.61-2.82Z"/>
      <g class="cls-97">
        <g class="cls-90">
          <g class="cls-97">
            <path class="cls-8" d="m224.25,208.63l.03,2.51c-.07.06-.15.11-.23.14l-.03-2.51c.08-.04.16-.09.23-.14"/>
            <path class="cls-7" d="m224.02,208.78l.03,2.51c-.05.03-.11.05-.17.06l-.03-2.51c.06-.02.11-.04.17-.06"/>
            <path class="cls-3" d="m223.85,208.84l.03,2.51s-.09.02-.14.03l-.03-2.51s.09-.02.14-.03"/>
            <path class="cls-4" d="m223.71,208.87l.03,2.51s-.09.01-.14.01l-.03-2.51s.09,0,.14-.01"/>
            <path class="cls-9" d="m223.57,208.88l.03,2.51s-.07,0-.11,0l-.03-2.51s.07,0,.11,0"/>
          </g>
        </g>
      </g>
    </g>
    <g class="cls-97">
      <g class="cls-97">
        <g class="cls-95">
          <g class="cls-97">
            <path class="cls-11" d="m263.67,166.19l.03,2.51c-.31-.32-.49-.66-.51-1,0-.02,0-.04,0-.05l-.03-2.51s0,.03,0,.05c.02.35.2.68.51,1"/>
          </g>
        </g>
      </g>
      <g class="cls-97">
        <g class="cls-89">
          <g class="cls-97">
            <path class="cls-3" d="m273.35,169.75l.03,2.51s0,0,0,.01l-.03-2.51s0,0,0-.01"/>
            <path class="cls-7" d="m273.35,169.76l.03,2.51s0,.08,0,.12c0,.04-.01.08-.02.12l-.03-2.51s.02-.08.02-.12c0-.04,0-.08,0-.12"/>
            <path class="cls-8" d="m273.33,170l.03,2.51c-.06.24-.24.48-.53.7l-.03-2.51c.29-.23.47-.46.53-.7"/>
          </g>
        </g>
      </g>
      <polygon class="cls-12" points="269.27 172.19 269.3 174.7 263.7 168.7 263.67 166.19 269.27 172.19"/>
      <polygon class="cls-10" points="272.8 170.7 272.83 173.21 270.83 174.78 270.79 172.27 272.8 170.7"/>
      <g class="cls-97">
        <g class="cls-88">
          <g class="cls-97">
            <path class="cls-9" d="m270.01,172.51l.03,2.51s-.07,0-.1-.01l-.03-2.51s.07,0,.1.01"/>
            <path class="cls-11" d="m269.91,172.5l.03,2.51c-.25-.04-.46-.14-.64-.32l-.03-2.51c.18.18.39.28.64.32"/>
          </g>
        </g>
      </g>
      <path class="cls-5" d="m267.28,161.41c.18-.14.42-.22.71-.22.29,0,.53.08.74.24.13.1.26.26.39.48l3.99,7.01c.18.34.26.66.23.95-.03.29-.21.56-.55.82l-2.01,1.57c-.24.18-.5.27-.78.25-.29-.02-.53-.13-.74-.33l-5.6-6c-.31-.32-.49-.66-.51-1-.02-.35.15-.66.52-.95l3.61-2.82Z"/>
      <g class="cls-97">
        <g class="cls-87">
          <g class="cls-97">
            <path class="cls-8" d="m270.79,172.27l.03,2.51c-.07.06-.15.11-.23.14l-.03-2.51c.08-.04.16-.09.23-.14"/>
            <path class="cls-7" d="m270.56,172.41l.03,2.51c-.05.03-.11.05-.17.06l-.03-2.51c.06-.02.11-.04.17-.06"/>
            <path class="cls-3" d="m270.4,172.48l.03,2.51s-.09.02-.14.03l-.03-2.51s.09-.02.14-.03"/>
            <path class="cls-4" d="m270.26,172.51l.03,2.51s-.09.01-.14.01l-.03-2.51s.09,0,.14-.01"/>
            <path class="cls-9" d="m270.12,172.52l.03,2.51s-.07,0-.11,0l-.03-2.51s.07,0,.11,0"/>
          </g>
        </g>
      </g>
    </g>
    <g class="cls-97">
      <polygon class="cls-10" points="294.39 113.08 294.42 115.59 289.51 119.43 289.47 116.92 294.39 113.08"/>
      <polygon class="cls-12" points="289.47 116.92 289.51 119.43 286.18 116.85 286.14 114.34 289.47 116.92"/>
      <polygon class="cls-12" points="321.74 134.3 321.77 136.81 294.42 115.59 294.39 113.08 321.74 134.3"/>
      <polygon class="cls-5" points="294.64 107.71 328.64 134.08 320.15 140.72 316.82 138.14 321.74 134.3 294.39 113.08 289.47 116.92 286.14 114.34 294.64 107.71"/>
      <polygon class="cls-10" points="328.64 134.08 328.68 136.59 320.19 143.23 320.15 140.72 328.64 134.08"/>
      <polygon class="cls-12" points="320.15 140.72 320.19 143.23 316.86 140.65 316.82 138.14 320.15 140.72"/>
    </g>
    <g class="cls-97">
      <g class="cls-97">
        <g class="cls-91">
          <g class="cls-97">
            <polyline class="cls-11" points="277.54 122.84 277.57 125.35 277.57 125.34 277.54 122.83 277.54 122.84"/>
          </g>
        </g>
      </g>
      <g class="cls-97">
        <g class="cls-93">
          <g class="cls-97">
            <path class="cls-11" d="m277.8,123.54l.03,2.51c-.17-.21-.26-.43-.27-.66l-.03-2.51c0,.23.09.45.27.66"/>
          </g>
        </g>
      </g>
      <g class="cls-97">
        <g class="cls-92">
          <g class="cls-97">
            <path class="cls-7" d="m293.11,124.06l.03,2.51c0,.06,0,.12-.02.18l-.03-2.51c.02-.06.02-.12.02-.18"/>
            <path class="cls-8" d="m293.09,124.24l.03,2.51c-.05.19-.17.36-.37.52l-.03-2.51c.2-.15.32-.33.37-.52"/>
          </g>
        </g>
      </g>
      <g class="cls-97">
        <g class="cls-96">
          <g class="cls-97">
            <polyline class="cls-3" points="293.11 124.05 293.15 126.56 293.15 126.57 293.11 124.06 293.11 124.05"/>
            <polyline class="cls-7" points="293.11 124.06 293.15 126.57 293.15 126.57 293.11 124.06 293.11 124.06"/>
          </g>
        </g>
      </g>
      <polygon class="cls-12" points="281.41 127.38 281.44 129.89 277.84 126.05 277.8 123.54 281.41 127.38"/>
      <polygon class="cls-10" points="292.72 124.76 292.76 127.27 288.86 130.31 288.83 127.8 292.72 124.76"/>
      <g class="cls-97">
        <g class="cls-94">
          <g class="cls-97">
            <polyline class="cls-11" points="268.61 129.81 268.65 132.32 268.65 132.31 268.61 129.8 268.61 129.81"/>
          </g>
        </g>
      </g>
      <g class="cls-97">
        <g class="cls-37">
          <g class="cls-97">
            <path class="cls-11" d="m268.88,130.51l.03,2.51c-.17-.21-.26-.43-.27-.66l-.03-2.51c0,.23.09.45.27.66"/>
          </g>
        </g>
      </g>
      <g class="cls-97">
        <g class="cls-38">
          <g class="cls-97">
            <polyline class="cls-3" points="302.04 132.56 302.07 135.07 302.07 135.08 302.04 132.57 302.04 132.56"/>
            <polyline class="cls-7" points="302.04 132.57 302.07 135.08 302.07 135.08 302.04 132.57 302.04 132.57"/>
          </g>
        </g>
      </g>
      <g class="cls-97">
        <g class="cls-41">
          <g class="cls-97">
            <path class="cls-7" d="m302.04,132.57l.03,2.51c0,.06,0,.13-.02.18l-.03-2.51c.02-.06.02-.12.02-.18"/>
            <path class="cls-8" d="m302.02,132.76l.03,2.51c-.05.19-.17.36-.37.52l-.03-2.51c.2-.16.32-.33.37-.52"/>
          </g>
        </g>
      </g>
      <polygon class="cls-12" points="272.48 134.35 272.52 136.86 268.91 133.02 268.88 130.51 272.48 134.35"/>
      <polygon class="cls-10" points="284.82 130.94 284.85 133.45 279.94 137.29 279.9 134.78 284.82 130.94"/>
      <polygon class="cls-12" points="289.87 136.26 289.9 138.77 284.85 133.45 284.82 130.94 289.87 136.26"/>
      <polygon class="cls-10" points="301.64 133.28 301.68 135.79 297.32 139.2 297.28 136.69 301.64 133.28"/>
      <g class="cls-97">
        <g class="cls-40">
          <g class="cls-97">
            <path class="cls-11" d="m268.08,139.19l.03,2.51c-.25-.19-.38-.42-.39-.67l-.03-2.51c0,.25.14.47.39.67"/>
          </g>
        </g>
      </g>
      <polygon class="cls-12" points="270.27 140.89 270.31 143.4 268.11 141.7 268.08 139.19 270.27 140.89"/>
      <polygon class="cls-10" points="275.89 137.91 275.93 140.42 272.12 143.4 272.08 140.89 275.89 137.91"/>
      <g class="cls-97">
        <g class="cls-39">
          <g class="cls-97">
            <path class="cls-9" d="m271.18,141.2l.03,2.51c-.08,0-.15,0-.23-.02l-.03-2.51c.07.01.15.02.23.02"/>
            <path class="cls-11" d="m270.95,141.18l.03,2.51c-.25-.04-.47-.13-.68-.29l-.03-2.51c.2.16.43.25.68.29"/>
          </g>
        </g>
      </g>
      <g class="cls-97">
        <g class="cls-42">
          <g class="cls-97">
            <path class="cls-8" d="m272.08,140.89l.03,2.51c-.09.07-.17.12-.27.17l-.03-2.51c.09-.04.18-.1.27-.17"/>
            <path class="cls-7" d="m271.82,141.05l.03,2.51c-.07.03-.14.06-.22.08l-.03-2.51c.07-.02.15-.05.22-.08"/>
            <path class="cls-3" d="m271.6,141.14l.03,2.51c-.07.02-.13.03-.2.04l-.03-2.51c.07-.01.14-.02.2-.04"/>
            <path class="cls-4" d="m271.4,141.18l.03,2.51c-.07.01-.14.02-.22.02l-.03-2.51c.08,0,.15,0,.22-.02"/>
          </g>
        </g>
      </g>
      <g class="cls-97">
        <g class="cls-55">
          <g class="cls-97">
            <path class="cls-7" d="m301.2,141.19l.03,2.51c0,.06,0,.12-.02.17l-.03-2.51c.01-.06.02-.11.02-.17"/>
            <path class="cls-8" d="m301.18,141.37l.03,2.51c-.04.18-.16.33-.34.47l-.03-2.51c.18-.14.29-.3.34-.47"/>
          </g>
        </g>
      </g>
      <polygon class="cls-12" points="280.94 143.23 280.98 145.74 275.93 140.42 275.89 137.91 280.94 143.23"/>
      <polygon class="cls-10" points="293.27 139.82 293.31 142.33 288.39 146.17 288.36 143.66 293.27 139.82"/>
      <polygon class="cls-12" points="296.91 143.62 296.95 146.13 293.31 142.33 293.27 139.82 296.91 143.62"/>
      <polygon class="cls-10" points="300.84 141.84 300.88 144.35 298.6 146.13 298.56 143.62 300.84 141.84"/>
      <g class="cls-97">
        <g class="cls-53">
          <g class="cls-97">
            <path class="cls-8" d="m298.56,143.62l.03,2.51c-.08.06-.16.11-.25.15l-.03-2.51c.09-.04.17-.09.25-.15"/>
            <path class="cls-7" d="m298.31,143.77l.03,2.51c-.07.03-.14.06-.21.08l-.03-2.51c.07-.02.14-.05.21-.08"/>
            <path class="cls-3" d="m298.11,143.85l.03,2.51c-.06.02-.12.03-.19.04l-.03-2.51c.06,0,.13-.02.19-.04"/>
            <path class="cls-4" d="m297.92,143.89l.03,2.51c-.06,0-.13.01-.2.02l-.03-2.51c.07,0,.13,0,.2-.02"/>
          </g>
        </g>
      </g>
      <g class="cls-97">
        <g class="cls-54">
          <g class="cls-97">
            <path class="cls-4" d="m297.72,143.91l.03,2.51s-.02,0-.03,0l-.03-2.51s.02,0,.03,0"/>
            <path class="cls-9" d="m297.69,143.91l.03,2.51c-.07,0-.14,0-.2-.01l-.03-2.51c.06,0,.13.01.2.01"/>
            <path class="cls-11" d="m297.49,143.9l.03,2.51c-.23-.03-.42-.13-.57-.28l-.03-2.51c.16.15.35.25.57.28"/>
          </g>
        </g>
      </g>
      <g class="cls-97">
        <g class="cls-56">
          <g class="cls-97">
            <path class="cls-11" d="m277,147.71l.03,2.51c-.26-.2-.39-.44-.39-.7l-.03-2.51c0,.26.13.5.39.7"/>
          </g>
        </g>
      </g>
      <g class="cls-97">
        <g class="cls-64">
          <g class="cls-97">
            <path class="cls-7" d="m292.28,148.16l.03,2.51c0,.06,0,.12-.02.17l-.03-2.51c.01-.06.02-.11.02-.17"/>
            <path class="cls-8" d="m292.26,148.34l.03,2.51c-.04.18-.16.33-.34.47l-.03-2.51c.18-.14.29-.3.34-.47"/>
          </g>
        </g>
      </g>
      <polygon class="cls-12" points="279.2 149.41 279.23 151.92 277.04 150.22 277 147.71 279.2 149.41"/>
      <polygon class="cls-10" points="284.34 146.8 284.38 149.31 281.04 151.92 281 149.4 284.34 146.8"/>
      <g class="cls-97">
        <g class="cls-66">
          <g class="cls-97">
            <path class="cls-9" d="m280.1,149.72l.03,2.51c-.07,0-.15,0-.22-.02l-.03-2.51c.07.01.14.02.22.02"/>
            <path class="cls-11" d="m279.88,149.7l.03,2.51c-.25-.04-.48-.13-.68-.29l-.03-2.51c.2.16.43.25.68.29"/>
          </g>
        </g>
      </g>
      <g class="cls-97">
        <g class="cls-63">
          <g class="cls-97">
            <path class="cls-8" d="m281,149.4l.03,2.51c-.09.07-.18.12-.27.17l-.03-2.51c.09-.05.18-.1.27-.17"/>
            <path class="cls-7" d="m280.73,149.57l.03,2.51c-.07.03-.14.06-.22.08l-.03-2.51c.07-.02.15-.05.22-.08"/>
            <path class="cls-3" d="m280.52,149.66l.03,2.51c-.06.02-.13.03-.19.04l-.03-2.51c.07,0,.13-.02.19-.04"/>
            <path class="cls-4" d="m280.32,149.7l.03,2.51c-.07.01-.14.02-.21.02l-.03-2.51c.07,0,.14,0,.21-.02"/>
            <path class="cls-9" d="m280.11,149.72l.03,2.51s0,0-.01,0l-.03-2.51s0,0,.01,0"/>
          </g>
        </g>
      </g>
      <polygon class="cls-12" points="287.99 150.59 288.02 153.11 284.38 149.31 284.34 146.8 287.99 150.59"/>
      <polygon class="cls-10" points="291.92 148.81 291.95 151.32 289.67 153.1 289.64 150.59 291.92 148.81"/>
      <g class="cls-97">
        <g class="cls-62">
          <g class="cls-97">
            <path class="cls-8" d="m289.64,150.59l.03,2.51c-.08.06-.16.11-.25.15l-.03-2.51c.09-.04.17-.09.25-.15"/>
            <path class="cls-7" d="m289.39,150.75l.03,2.51c-.07.03-.14.06-.21.08l-.03-2.51c.07-.02.14-.05.21-.08"/>
            <path class="cls-3" d="m289.18,150.83l.03,2.51c-.06.02-.12.03-.19.04l-.03-2.51c.06,0,.13-.02.19-.04"/>
            <path class="cls-4" d="m288.99,150.87l.03,2.51c-.06,0-.13.01-.2.02l-.03-2.51c.07,0,.13,0,.2-.02"/>
          </g>
        </g>
      </g>
      <path class="cls-5" d="m289.62,121.36c.34,0,.64.1.9.3l2.2,1.7c.26.2.39.43.39.7,0,.26-.13.5-.39.7l-3.89,3.04,5.09,5.29,3.74-2.92c.26-.2.56-.31.9-.31.34,0,.64.1.9.3l2.19,1.7c.26.2.39.43.39.7,0,.27-.13.5-.4.71l-4.36,3.41,3.64,3.8c.18.22.27.46.28.7,0,.25-.12.46-.36.65l-2.28,1.78c-.24.18-.52.28-.84.29-.33.01-.6-.09-.81-.29l-3.64-3.8-4.91,3.84,3.64,3.8c.18.22.27.46.28.7,0,.25-.12.46-.36.65l-2.28,1.78c-.24.18-.52.28-.84.29-.33.01-.6-.09-.81-.29l-3.64-3.8-3.34,2.61c-.26.2-.56.31-.9.31-.34,0-.64-.1-.9-.3l-2.19-1.7c-.26-.2-.39-.44-.39-.7,0-.27.13-.5.4-.71l3.93-3.07-5.05-5.32-3.81,2.98c-.27.21-.57.3-.9.31-.34,0-.64-.1-.9-.3l-2.2-1.7c-.26-.2-.39-.43-.39-.7,0-.27.13-.5.4-.71l4.4-3.44-3.61-3.84c-.18-.22-.27-.46-.27-.7,0-.24.12-.46.35-.64l2.28-1.78c.24-.18.51-.28.82-.28.31,0,.57.1.78.3l3.64,3.81,4.91-3.84-3.61-3.84c-.18-.22-.27-.46-.27-.7,0-.24.12-.46.35-.64l2.28-1.78c.24-.18.51-.28.82-.28.31,0,.57.1.78.3l3.64,3.81,3.31-2.58c.26-.2.56-.31.9-.31Zm.24,14.9l-5.05-5.32-4.91,3.84,5.09,5.29,4.88-3.81"/>
      <g class="cls-97">
        <g class="cls-57">
          <g class="cls-97">
            <path class="cls-4" d="m288.8,150.88l.03,2.51s-.02,0-.03,0l-.03-2.51s.02,0,.03,0"/>
            <path class="cls-9" d="m288.76,150.88l.03,2.51c-.07,0-.14,0-.2-.01l-.03-2.51c.06,0,.13.01.2.01"/>
            <path class="cls-11" d="m288.56,150.87l.03,2.51c-.23-.03-.42-.13-.57-.28l-.03-2.51c.16.15.35.25.57.28"/>
          </g>
        </g>
      </g>
    </g>
    <g class="cls-97">
      <polygon class="cls-19" points="189.76 66.58 189.8 69.09 189.62 151.65 189.58 149.14 189.76 66.58"/>
      <g class="cls-97">
        <g class="cls-58">
          <g class="cls-97">
            <path class="cls-23" d="m125.93,157.67l.03,2.51c-.67,0-1.33-.04-1.96-.13l-.03-2.51c.64.09,1.29.14,1.96.13"/>
            <path class="cls-21" d="m123.97,157.53l.03,2.51c-4.92-.7-8.63-4.04-8.63-8.08l-.03-2.51c0,4.04,3.71,7.38,8.63,8.08"/>
          </g>
        </g>
      </g>
      <polygon class="cls-17" points="178.96 157.44 178.99 159.95 125.96 160.18 125.93 157.67 178.96 157.44"/>
      <path class="cls-13" d="m171.67,60.81c1.92-1.5,4.57-2.44,7.5-2.45,5.85-.02,10.6,3.66,10.59,8.21l-.18,82.56c0,2.28-1.19,4.35-3.12,5.86-1.92,1.5-4.58,2.43-7.51,2.44l-53.03.22c-5.86.02-10.6-3.66-10.59-8.21,0-2.28,1.2-4.35,3.12-5.85,1.92-1.5,4.58-2.44,7.5-2.45l42.43-.18.16-74.31c0-2.28,1.2-4.35,3.12-5.85Z"/>
      <g class="cls-97">
        <g class="cls-59">
          <g class="cls-97">
            <path class="cls-16" d="m189.58,149.14l.03,2.51c0,.55-.07,1.09-.2,1.61l-.03-2.51c.13-.52.2-1.06.2-1.61"/>
            <path class="cls-18" d="m189.38,150.75l.03,2.51c-.42,1.64-1.46,3.11-2.92,4.25-.58.46-1.24.86-1.95,1.2l-.03-2.51c.71-.34,1.36-.75,1.95-1.2,1.46-1.14,2.5-2.61,2.92-4.25"/>
            <path class="cls-16" d="m184.52,156.2l.03,2.51c-.59.28-1.22.53-1.88.72l-.03-2.51c.66-.19,1.29-.43,1.88-.72"/>
            <path class="cls-20" d="m182.64,156.92l.03,2.51c-.56.16-1.14.29-1.75.38l-.03-2.51c.6-.09,1.18-.22,1.75-.38"/>
            <path class="cls-22" d="m180.9,157.3l.03,2.51c-.59.09-1.2.14-1.82.14l-.03-2.51c.62,0,1.23-.06,1.82-.14"/>
            <path class="cls-23" d="m179.08,157.44l.03,2.51s-.08,0-.12,0l-.03-2.51s.08,0,.12,0"/>
          </g>
        </g>
      </g>
    </g>
    <g class="cls-97">
      <g class="cls-97">
        <g class="cls-60">
          <g class="cls-97">
            <path class="cls-11" d="m231.26,159.9l.03,2.51c-.18-.22-.27-.45-.27-.68l-.03-2.51c0,.23.09.46.27.68"/>
          </g>
        </g>
      </g>
      <g class="cls-97">
        <g class="cls-65">
          <g class="cls-97">
            <polyline class="cls-3" points="246.57 160.41 246.6 162.92 246.6 162.93 246.57 160.42 246.57 160.41"/>
            <polyline class="cls-7" points="246.57 160.42 246.6 162.93 246.6 162.94 246.57 160.43 246.57 160.42"/>
          </g>
        </g>
      </g>
      <g class="cls-97">
        <g class="cls-61">
          <g class="cls-97">
            <path class="cls-7" d="m246.57,160.43l.03,2.51c0,.06,0,.12-.02.18l-.03-2.51c.01-.06.02-.12.02-.18"/>
            <path class="cls-8" d="m246.54,160.6l.03,2.51c-.05.19-.17.37-.37.53l-.03-2.51c.2-.16.32-.33.37-.53"/>
          </g>
        </g>
      </g>
      <polygon class="cls-12" points="234.86 163.74 234.9 166.25 231.29 162.42 231.26 159.9 234.86 163.74"/>
      <polygon class="cls-10" points="246.17 161.13 246.2 163.64 242.32 166.68 242.28 164.17 246.17 161.13"/>
      <g class="cls-97">
        <g class="cls-45">
          <g class="cls-97">
            <path class="cls-11" d="m222.33,166.88l.03,2.51c-.18-.22-.27-.45-.27-.68l-.03-2.51c0,.23.09.46.27.68"/>
          </g>
        </g>
      </g>
      <g class="cls-97">
        <g class="cls-47">
          <g class="cls-97">
            <path class="cls-7" d="m255.49,168.94l.03,2.51c0,.06,0,.13-.02.18l-.03-2.51c.02-.06.02-.12.02-.18"/>
            <path class="cls-8" d="m255.47,169.12l.03,2.51c-.05.19-.17.36-.37.52l-.03-2.51c.2-.16.32-.33.37-.52"/>
          </g>
        </g>
      </g>
      <polygon class="cls-12" points="225.94 170.72 225.97 173.23 222.37 169.39 222.33 166.88 225.94 170.72"/>
      <polygon class="cls-10" points="238.27 167.3 238.31 169.81 233.39 173.65 233.36 171.14 238.27 167.3"/>
      <polygon class="cls-12" points="243.32 172.63 243.35 175.14 238.31 169.81 238.27 167.3 243.32 172.63"/>
      <polygon class="cls-10" points="255.1 169.64 255.13 172.16 250.77 175.57 250.73 173.06 255.1 169.64"/>
      <g class="cls-97">
        <g class="cls-46">
          <g class="cls-97">
            <path class="cls-11" d="m221.53,175.55l.03,2.51c-.25-.19-.38-.42-.39-.67l-.03-2.51c0,.25.14.47.39.67"/>
          </g>
        </g>
      </g>
      <polygon class="cls-12" points="223.73 177.26 223.76 179.77 221.57 178.07 221.53 175.55 223.73 177.26"/>
      <polygon class="cls-10" points="229.35 174.27 229.38 176.78 225.56 179.77 225.53 177.26 229.35 174.27"/>
      <g class="cls-97">
        <g class="cls-49">
          <g class="cls-97">
            <path class="cls-8" d="m225.53,177.26l.03,2.51c-.08.06-.17.12-.26.16l-.03-2.51c.09-.04.18-.1.26-.16"/>
            <path class="cls-7" d="m225.27,177.42l.03,2.51c-.07.03-.14.06-.22.08l-.03-2.51c.07-.02.15-.05.22-.08"/>
            <path class="cls-3" d="m225.05,177.5l.03,2.51c-.06.02-.13.03-.2.04l-.03-2.51c.07,0,.13-.02.2-.04"/>
            <path class="cls-4" d="m224.85,177.55l.03,2.51c-.07.01-.14.02-.21.02l-.03-2.51c.07,0,.14,0,.21-.02"/>
            <path class="cls-9" d="m224.65,177.56l.03,2.51s0,0-.01,0c-.08,0-.15,0-.23-.02l-.03-2.51c.07.01.15.02.23.02,0,0,0,0,.01,0"/>
            <path class="cls-11" d="m224.4,177.55l.03,2.51c-.25-.04-.47-.13-.68-.29l-.03-2.51c.2.16.43.25.68.29"/>
          </g>
        </g>
      </g>
      <g class="cls-97">
        <g class="cls-43">
          <g class="cls-97">
            <polyline class="cls-3" points="254.65 177.55 254.68 180.06 254.68 180.07 254.65 177.56 254.65 177.55"/>
            <polyline class="cls-7" points="254.65 177.56 254.68 180.07 254.68 180.07 254.65 177.56 254.65 177.56"/>
          </g>
        </g>
      </g>
      <g class="cls-97">
        <g class="cls-44">
          <g class="cls-97">
            <path class="cls-3" d="m254.65,177.56l.03,2.51s0,0,0,.01l-.03-2.51s0,0,0-.01"/>
            <path class="cls-7" d="m254.65,177.58l.03,2.51c0,.06,0,.11-.02.16l-.03-2.51c.01-.05.02-.11.02-.16"/>
            <path class="cls-8" d="m254.63,177.74l.03,2.51c-.04.17-.16.32-.33.46l-.03-2.51c.18-.14.29-.29.33-.46"/>
          </g>
        </g>
      </g>
      <polygon class="cls-12" points="234.4 179.6 234.43 182.11 229.38 176.78 229.35 174.27 234.4 179.6"/>
      <polygon class="cls-10" points="246.72 176.19 246.76 178.7 241.84 182.54 241.81 180.03 246.72 176.19"/>
      <polygon class="cls-12" points="250.37 179.99 250.4 182.5 246.76 178.7 246.72 176.19 250.37 179.99"/>
      <polygon class="cls-10" points="254.3 178.2 254.33 180.71 252.05 182.5 252.02 179.99 254.3 178.2"/>
      <g class="cls-97">
        <g class="cls-50">
          <g class="cls-97">
            <path class="cls-8" d="m252.02,179.99l.03,2.51c-.08.06-.16.11-.25.15l-.03-2.51c.09-.04.17-.09.25-.15"/>
            <path class="cls-7" d="m251.77,180.14l.03,2.51c-.07.03-.14.06-.21.08l-.03-2.51c.07-.02.14-.05.21-.08"/>
            <path class="cls-3" d="m251.56,180.22l.03,2.51c-.06.02-.12.03-.19.04l-.03-2.51c.06,0,.13-.02.19-.04"/>
            <path class="cls-4" d="m251.37,180.26l.03,2.51c-.06,0-.13.01-.2.02l-.03-2.51c.07,0,.13,0,.2-.02"/>
          </g>
        </g>
      </g>
      <g class="cls-97">
        <g class="cls-48">
          <g class="cls-97">
            <path class="cls-4" d="m251.18,180.28l.03,2.51s-.02,0-.03,0l-.03-2.51s.02,0,.03,0"/>
            <path class="cls-9" d="m251.14,180.28l.03,2.51c-.07,0-.14,0-.21-.01l-.03-2.51c.07,0,.14.01.21.01"/>
            <path class="cls-11" d="m250.93,180.26l.03,2.51c-.22-.03-.41-.12-.57-.28l-.03-2.51c.15.15.34.25.57.28"/>
          </g>
        </g>
      </g>
      <g class="cls-97">
        <g class="cls-51">
          <g class="cls-97">
            <path class="cls-11" d="m230.46,184.08l.03,2.51c-.26-.2-.39-.43-.39-.69l-.03-2.51c0,.26.14.49.39.69"/>
          </g>
        </g>
      </g>
      <g class="cls-97">
        <g class="cls-52">
          <g class="cls-97">
            <polyline class="cls-3" points="245.72 184.52 245.76 187.03 245.76 187.04 245.73 184.53 245.72 184.52"/>
            <polyline class="cls-7" points="245.73 184.53 245.76 187.04 245.76 187.05 245.73 184.53 245.73 184.53"/>
          </g>
        </g>
      </g>
      <g class="cls-97">
        <g class="cls-69">
          <g class="cls-97">
            <path class="cls-3" d="m245.73,184.53l.03,2.51s0,0,0,.01l-.03-2.51s0,0,0-.01"/>
            <path class="cls-7" d="m245.73,184.55l.03,2.51c0,.06,0,.11-.02.16l-.03-2.51c.01-.05.02-.11.02-.16"/>
            <path class="cls-8" d="m245.71,184.71l.03,2.51c-.04.17-.16.32-.33.46l-.03-2.51c.18-.14.29-.29.33-.46"/>
          </g>
        </g>
      </g>
      <polygon class="cls-12" points="232.65 185.78 232.69 188.29 230.49 186.59 230.46 184.08 232.65 185.78"/>
      <polygon class="cls-10" points="237.8 183.16 237.83 185.67 234.49 188.28 234.46 185.77 237.8 183.16"/>
      <g class="cls-97">
        <g class="cls-70">
          <g class="cls-97">
            <path class="cls-8" d="m234.46,185.77l.03,2.51c-.09.07-.18.12-.27.17l-.03-2.51c.09-.05.18-.1.27-.17"/>
            <path class="cls-7" d="m234.19,185.94l.03,2.51c-.07.03-.14.06-.22.08l-.03-2.51c.07-.02.15-.05.22-.08"/>
            <path class="cls-3" d="m233.97,186.02l.03,2.51c-.06.02-.13.03-.19.04l-.03-2.51c.07,0,.13-.02.19-.04"/>
            <path class="cls-4" d="m233.78,186.06l.03,2.51c-.07.01-.14.02-.21.02l-.03-2.51c.07,0,.14,0,.21-.02"/>
            <path class="cls-9" d="m233.57,186.08l.03,2.51s0,0-.01,0c-.08,0-.15,0-.23-.02l-.03-2.51c.07.01.15.02.23.02,0,0,0,0,.01,0"/>
            <path class="cls-11" d="m233.33,186.07l.03,2.51c-.25-.04-.47-.13-.68-.29l-.03-2.51c.2.16.43.25.68.29"/>
          </g>
        </g>
      </g>
      <polygon class="cls-12" points="241.44 186.96 241.48 189.47 237.83 185.67 237.8 183.16 241.44 186.96"/>
      <polygon class="cls-10" points="245.37 185.17 245.41 187.69 243.13 189.47 243.09 186.96 245.37 185.17"/>
      <g class="cls-97">
        <g class="cls-71">
          <g class="cls-97">
            <path class="cls-8" d="m243.09,186.96l.03,2.51c-.08.06-.16.11-.25.15l-.03-2.51c.09-.04.17-.09.25-.15"/>
            <path class="cls-7" d="m242.84,187.11l.03,2.51c-.07.03-.14.06-.21.08l-.03-2.51c.07-.02.14-.05.21-.08"/>
            <path class="cls-3" d="m242.63,187.19l.03,2.51c-.06.02-.13.03-.2.04l-.03-2.51c.07-.01.13-.02.2-.04"/>
            <path class="cls-4" d="m242.43,187.24l.03,2.51c-.06,0-.12.01-.19.02l-.03-2.51c.06,0,.13,0,.19-.02"/>
          </g>
        </g>
      </g>
      <g class="cls-97">
        <g class="cls-67">
          <g class="cls-97">
            <polyline class="cls-4" points="242.24 187.25 242.28 189.76 242.27 189.76 242.23 187.25 242.24 187.25"/>
            <path class="cls-9" d="m242.23,187.25l.03,2.51c-.07,0-.15,0-.21-.01l-.03-2.51c.07,0,.14.01.21.01"/>
            <path class="cls-11" d="m242.02,187.24l.03,2.51c-.23-.03-.42-.12-.58-.28l-.03-2.51c.15.16.35.25.58.28"/>
          </g>
        </g>
      </g>
      <path class="cls-5" d="m243.08,157.72c.34,0,.64.1.9.3l2.2,1.7c.26.2.39.43.39.7,0,.26-.13.5-.4.71l-3.89,3.04,5.09,5.29,3.74-2.92c.26-.2.56-.31.9-.31.34,0,.64.1.9.3l2.19,1.7c.26.2.39.44.39.7,0,.27-.13.5-.4.71l-4.37,3.41,3.64,3.8c.18.23.27.46.27.71,0,.24-.12.46-.35.64l-2.28,1.78c-.24.18-.52.28-.84.29-.33.01-.6-.08-.81-.29l-3.64-3.8-4.91,3.84,3.64,3.8c.18.23.27.46.27.71,0,.24-.12.46-.35.64l-2.28,1.78c-.24.18-.52.28-.85.3-.32,0-.6-.09-.8-.29l-3.64-3.8-3.34,2.61c-.26.2-.56.31-.9.31-.34,0-.64-.1-.9-.3l-2.19-1.7c-.26-.2-.39-.43-.39-.7,0-.27.13-.5.4-.71l3.93-3.07-5.05-5.32-3.82,2.98c-.26.2-.57.3-.9.31-.34,0-.64-.1-.9-.3l-2.2-1.7c-.26-.2-.39-.43-.39-.7,0-.26.13-.5.39-.7l4.4-3.44-3.61-3.84c-.18-.22-.27-.46-.27-.7,0-.25.12-.46.36-.65l2.28-1.78c.24-.18.5-.27.82-.28.31,0,.57.1.78.3l3.64,3.81,4.91-3.84-3.61-3.84c-.18-.22-.27-.46-.27-.7,0-.25.12-.46.36-.65l2.28-1.78c.24-.18.5-.27.82-.28.31,0,.57.1.78.3l3.64,3.81,3.3-2.58c.26-.2.56-.31.9-.31Zm.24,14.9l-5.05-5.32-4.91,3.84,5.09,5.29,4.88-3.81"/>
    </g>
    <g class="cls-97">
      <g class="cls-97">
        <g class="cls-68">
          <g class="cls-97">
            <path class="cls-11" d="m184.71,196.27l.03,2.51c-.17-.21-.27-.43-.27-.66l-.03-2.51c0,.23.1.45.27.66"/>
          </g>
        </g>
      </g>
      <g class="cls-97">
        <g class="cls-72">
          <g class="cls-97">
            <path class="cls-7" d="m200.02,196.79l.03,2.51c0,.06,0,.12-.02.18l-.03-2.51c.01-.06.02-.12.02-.18"/>
            <path class="cls-8" d="m200,196.97l.03,2.51c-.05.19-.17.37-.37.53l-.03-2.51c.2-.16.32-.33.37-.53"/>
          </g>
        </g>
      </g>
      <g class="cls-97">
        <g class="cls-73">
          <g class="cls-97">
            <polyline class="cls-3" points="200.02 196.78 200.06 199.29 200.06 199.3 200.02 196.79 200.02 196.78"/>
            <polyline class="cls-7" points="200.02 196.79 200.06 199.3 200.06 199.3 200.02 196.79 200.02 196.79"/>
          </g>
        </g>
      </g>
      <polygon class="cls-12" points="188.32 200.11 188.35 202.62 184.75 198.78 184.71 196.27 188.32 200.11"/>
      <polygon class="cls-10" points="199.62 197.5 199.66 200.01 195.77 203.05 195.74 200.53 199.62 197.5"/>
      <g class="cls-97">
        <g class="cls-74">
          <g class="cls-97">
            <path class="cls-11" d="m175.79,203.24l.03,2.51c-.17-.21-.27-.43-.27-.66l-.03-2.51c0,.23.1.45.27.66"/>
          </g>
        </g>
      </g>
      <g class="cls-97">
        <g class="cls-75">
          <g class="cls-97">
            <path class="cls-7" d="m208.95,205.3l.03,2.51c0,.06,0,.13-.02.18l-.03-2.51c.02-.06.02-.12.02-.18"/>
            <path class="cls-8" d="m208.93,205.49l.03,2.51c-.05.19-.17.36-.37.52l-.03-2.51c.2-.16.32-.33.37-.52"/>
          </g>
        </g>
      </g>
      <polygon class="cls-12" points="179.39 207.08 179.43 209.59 175.82 205.75 175.79 203.24 179.39 207.08"/>
      <polygon class="cls-10" points="191.72 203.67 191.75 206.18 186.84 210.02 186.81 207.51 191.72 203.67"/>
      <polygon class="cls-12" points="196.77 208.99 196.81 211.5 191.75 206.18 191.72 203.67 196.77 208.99"/>
      <polygon class="cls-10" points="208.55 206.01 208.59 208.52 204.22 211.93 204.19 209.42 208.55 206.01"/>
      <g class="cls-97">
        <g class="cls-81">
          <g class="cls-97">
            <path class="cls-11" d="m174.98,211.92l.03,2.51c-.26-.2-.38-.43-.39-.68l-.03-2.51c0,.25.13.49.39.68"/>
          </g>
        </g>
      </g>
      <polygon class="cls-12" points="177.18 213.63 177.21 216.14 175.01 214.44 174.98 211.92 177.18 213.63"/>
      <polygon class="cls-10" points="182.8 210.64 182.83 213.15 179.02 216.13 178.98 213.62 182.8 210.64"/>
      <g class="cls-97">
        <g class="cls-35">
          <g class="cls-97">
            <path class="cls-8" d="m178.98,213.62l.03,2.51c-.08.07-.17.12-.26.16l-.03-2.51c.09-.04.18-.1.26-.16"/>
            <path class="cls-7" d="m178.72,213.79l.03,2.51c-.07.03-.15.06-.22.09l-.03-2.51c.08-.02.15-.05.22-.09"/>
            <path class="cls-3" d="m178.5,213.87l.03,2.51c-.07.02-.13.03-.2.04l-.03-2.51c.07-.01.14-.02.2-.04"/>
            <path class="cls-4" d="m178.29,213.92l.03,2.51c-.07.01-.14.02-.21.02l-.03-2.51c.07,0,.14,0,.21-.02"/>
          </g>
        </g>
      </g>
      <g class="cls-97">
        <g class="cls-76">
          <g class="cls-97">
            <path class="cls-9" d="m178.08,213.93l.03,2.51c-.07,0-.15,0-.22-.02l-.03-2.51c.07.01.14.02.22.02"/>
            <path class="cls-11" d="m177.86,213.92l.03,2.51c-.25-.04-.48-.13-.68-.29l-.03-2.51c.2.16.43.25.68.29"/>
          </g>
        </g>
      </g>
      <g class="cls-97">
        <g class="cls-78">
          <g class="cls-97">
            <polyline class="cls-3" points="208.1 213.91 208.14 216.42 208.14 216.43 208.1 213.92 208.1 213.91"/>
            <polyline class="cls-7" points="208.1 213.92 208.14 216.43 208.14 216.44 208.1 213.93 208.1 213.92"/>
          </g>
        </g>
      </g>
      <g class="cls-97">
        <g class="cls-83">
          <g class="cls-97">
            <path class="cls-7" d="m208.1,213.93l.03,2.51c0,.06,0,.12-.02.18l-.03-2.51c.01-.06.02-.12.02-.18"/>
            <path class="cls-8" d="m208.08,214.11l.03,2.51c-.04.17-.15.32-.33.46l-.03-2.51c.18-.14.29-.29.33-.46"/>
          </g>
        </g>
      </g>
      <polygon class="cls-12" points="187.85 215.96 187.88 218.47 182.83 213.15 182.8 210.64 187.85 215.96"/>
      <polygon class="cls-10" points="200.18 212.55 200.21 215.06 195.3 218.9 195.26 216.39 200.18 212.55"/>
      <polygon class="cls-12" points="203.82 216.36 203.85 218.87 200.21 215.06 200.18 212.55 203.82 216.36"/>
      <polygon class="cls-10" points="207.75 214.57 207.79 217.08 205.5 218.86 205.47 216.35 207.75 214.57"/>
      <g class="cls-97">
        <g class="cls-77">
          <g class="cls-97">
            <path class="cls-8" d="m205.47,216.35l.03,2.51c-.08.06-.16.11-.25.15l-.03-2.51c.09-.04.17-.09.25-.15"/>
            <path class="cls-7" d="m205.22,216.51l.03,2.51c-.07.03-.14.06-.21.08l-.03-2.51c.07-.02.14-.05.21-.08"/>
            <path class="cls-3" d="m205.01,216.59l.03,2.51c-.06.02-.13.03-.2.04l-.03-2.51c.07-.01.13-.02.2-.04"/>
            <path class="cls-4" d="m204.81,216.63l.03,2.51c-.06,0-.12.01-.19.02l-.03-2.51c.06,0,.13,0,.19-.02"/>
          </g>
        </g>
      </g>
      <g class="cls-97">
        <g class="cls-82">
          <g class="cls-97">
            <polyline class="cls-4" points="204.62 216.65 204.66 219.16 204.65 219.16 204.61 216.65 204.62 216.65"/>
            <path class="cls-9" d="m204.61,216.65l.03,2.51c-.07,0-.15,0-.22-.01l-.03-2.51c.07,0,.14.01.22.01"/>
            <path class="cls-11" d="m204.4,216.63l.03,2.51c-.23-.03-.42-.12-.58-.28l-.03-2.51c.16.15.35.24.58.28"/>
          </g>
        </g>
      </g>
      <g class="cls-97">
        <g class="cls-84">
          <g class="cls-97">
            <path class="cls-11" d="m183.91,220.44l.03,2.51c-.26-.2-.39-.43-.39-.69l-.03-2.51c0,.26.14.49.39.69"/>
          </g>
        </g>
      </g>
      <g class="cls-97">
        <g class="cls-80">
          <g class="cls-97">
            <path class="cls-7" d="m199.18,220.9l.03,2.51c0,.06,0,.12-.02.18l-.03-2.51c.01-.06.02-.12.02-.18"/>
            <path class="cls-8" d="m199.16,221.08l.03,2.51c-.04.17-.15.32-.33.46l-.03-2.51c.18-.14.29-.29.33-.46"/>
          </g>
        </g>
      </g>
      <g class="cls-97">
        <g class="cls-79">
          <g class="cls-97">
            <polyline class="cls-3" points="199.18 220.88 199.21 223.4 199.21 223.4 199.18 220.89 199.18 220.88"/>
            <polyline class="cls-7" points="199.18 220.89 199.21 223.4 199.21 223.41 199.18 220.9 199.18 220.89"/>
          </g>
        </g>
      </g>
      <polygon class="cls-12" points="186.11 222.14 186.14 224.65 183.95 222.95 183.91 220.44 186.11 222.14"/>
      <polygon class="cls-10" points="191.25 219.53 191.29 222.04 187.95 224.65 187.91 222.14 191.25 219.53"/>
      <g class="cls-97">
        <g class="cls-36">
          <g class="cls-97">
            <path class="cls-8" d="m187.91,222.14l.03,2.51c-.09.07-.18.12-.27.17l-.03-2.51c.09-.05.18-.1.27-.17"/>
            <path class="cls-7" d="m187.64,222.3l.03,2.51c-.07.03-.14.06-.22.08l-.03-2.51c.07-.02.15-.05.22-.08"/>
            <path class="cls-3" d="m187.43,222.39l.03,2.51c-.06.02-.13.03-.19.04l-.03-2.51c.07,0,.13-.02.19-.04"/>
            <path class="cls-4" d="m187.23,222.43l.03,2.51c-.07.01-.14.02-.21.02l-.03-2.51c.07,0,.14,0,.21-.02"/>
            <path class="cls-9" d="m187.02,222.45l.03,2.51s0,0-.01,0c-.08,0-.15,0-.23-.02l-.03-2.51c.07.01.15.02.23.02,0,0,0,0,.01,0"/>
            <path class="cls-11" d="m186.78,222.43l.03,2.51c-.25-.04-.47-.13-.68-.29l-.03-2.51c.2.16.43.25.68.29"/>
          </g>
        </g>
      </g>
      <polygon class="cls-12" points="194.89 223.33 194.93 225.84 191.29 222.04 191.25 219.53 194.89 223.33"/>
      <polygon class="cls-10" points="198.83 221.54 198.86 224.05 196.58 225.83 196.55 223.32 198.83 221.54"/>
      <g class="cls-97">
        <g class="cls-85">
          <g class="cls-97">
            <path class="cls-8" d="m196.55,223.32l.03,2.51c-.08.06-.16.11-.25.16l-.03-2.51c.09-.04.17-.09.25-.16"/>
            <path class="cls-7" d="m196.3,223.48l.03,2.51c-.07.03-.14.06-.21.08l-.03-2.51c.07-.02.14-.05.21-.08"/>
            <path class="cls-3" d="m196.09,223.56l.03,2.51c-.06.02-.13.03-.2.04l-.03-2.51c.07-.01.13-.02.2-.04"/>
            <path class="cls-4" d="m195.89,223.6l.03,2.51c-.06,0-.12.01-.19.02l-.03-2.51c.06,0,.13,0,.19-.02"/>
          </g>
        </g>
      </g>
      <g class="cls-97">
        <g class="cls-86">
          <g class="cls-97">
            <polyline class="cls-4" points="195.7 223.62 195.73 226.13 195.72 226.13 195.69 223.62 195.7 223.62"/>
            <path class="cls-9" d="m195.69,223.62l.03,2.51c-.07,0-.15,0-.22-.01l-.03-2.51c.07,0,.14.01.22.01"/>
            <path class="cls-11" d="m195.47,223.61l.03,2.51c-.23-.03-.42-.12-.58-.28l-.03-2.51c.16.15.35.24.58.28"/>
          </g>
        </g>
      </g>
      <path class="cls-5" d="m196.53,194.09c.34,0,.64.1.9.3l2.2,1.7c.26.2.39.43.39.7,0,.26-.13.5-.4.71l-3.89,3.04,5.09,5.29,3.74-2.92c.26-.2.56-.31.9-.31.34,0,.64.1.9.3l2.19,1.7c.26.2.39.44.39.7,0,.27-.13.5-.4.71l-4.37,3.41,3.64,3.8c.18.23.27.46.27.71,0,.25-.12.46-.35.64l-2.28,1.78c-.24.18-.52.28-.85.3-.32,0-.6-.09-.81-.29l-3.64-3.8-4.91,3.84,3.64,3.8c.18.22.28.45.28.7,0,.25-.12.46-.35.64l-2.28,1.78c-.24.18-.52.28-.85.3-.32,0-.6-.09-.81-.29l-3.64-3.8-3.34,2.61c-.26.2-.56.31-.9.31-.34,0-.64-.1-.9-.3l-2.19-1.7c-.26-.2-.39-.43-.39-.7,0-.27.13-.5.4-.71l3.93-3.07-5.05-5.32-3.81,2.98c-.26.2-.57.3-.9.31-.34,0-.64-.1-.9-.3l-2.2-1.7c-.26-.2-.39-.44-.39-.7,0-.27.13-.5.4-.71l4.4-3.44-3.61-3.84c-.18-.22-.28-.45-.27-.7,0-.25.12-.46.36-.65l2.28-1.78c.24-.18.51-.28.83-.28.31,0,.57.1.78.3l3.64,3.81,4.91-3.84-3.61-3.84c-.18-.22-.28-.45-.27-.7,0-.25.12-.46.36-.65l2.28-1.78c.24-.18.51-.28.83-.28.31,0,.57.1.78.3l3.64,3.81,3.3-2.58c.26-.2.56-.31.9-.31Zm.24,14.9l-5.05-5.32-4.91,3.84,5.09,5.29,4.88-3.81"/>
    </g>
    <g class="cls-97">
      <polygon class="cls-10" points="167.88 211.92 167.91 214.44 163 218.27 162.96 215.76 167.88 211.92"/>
      <polygon class="cls-5" points="164.55 209.34 167.88 211.92 162.96 215.76 190.31 236.98 195.23 233.14 198.56 235.72 190.07 242.35 156.06 215.98 164.55 209.34"/>
      <polygon class="cls-10" points="198.56 235.72 198.59 238.23 190.1 244.86 190.07 242.35 198.56 235.72"/>
      <polygon class="cls-12" points="190.07 242.35 190.1 244.86 156.09 218.49 156.06 215.98 190.07 242.35"/>
    </g>
  </g>
</svg>